<svg xmlns="http://www.w3.org/2000/svg" viewBox="0 0 64 64" fill="none">
  <defs>
    <linearGradient id="cordaGrad" x1="0%" y1="0%" x2="100%" y2="100%">
      <stop offset="0%" style="stop-color:#EC1D27;stop-opacity:1" />
      <stop offset="100%" style="stop-color:#B91C1C;stop-opacity:1" />
    </linearGradient>
  </defs>
  <!-- Background circle -->
  <circle cx="32" cy="32" r="30" fill="url(#cordaGrad)"/>
  <!-- Corda "C" letter stylized as blockchain nodes -->
  <g fill="#FFFFFF">
    <!-- Main C shape -->
    <path d="M32 14c-9.941 0-18 8.059-18 18s8.059 18 18 18c4.418 0 8.467-1.594 11.598-4.236l-4.242-4.242C35.523 43.143 33.837 44 32 44c-6.627 0-12-5.373-12-12s5.373-12 12-12c1.837 0 3.523.857 5.356 2.478l4.242-4.242C38.467 15.594 34.418 14 32 14z"/>
    <!-- Node dots representing distributed ledger -->
    <circle cx="45" cy="22" r="3"/>
    <circle cx="48" cy="32" r="3"/>
    <circle cx="45" cy="42" r="3"/>
    <!-- Connection lines -->
    <rect x="43" y="25" width="2" height="4" rx="1"/>
    <rect x="43" y="35" width="2" height="4" rx="1"/>
  </g>
  <!-- Inner ring accent -->
  <circle cx="32" cy="32" r="8" fill="none" stroke="#FFFFFF" stroke-width="2" stroke-dasharray="4 2"/>
</svg>
